HIERARCHY
ROOT hip
{
  OFFSET 0 0 0
  CHANNELS 6 Xposition Yposition Zposition Zrotation Yrotation Xrotation
  JOINT abdomen
  {
    OFFSET 0 20.6881 -0.73152
    CHANNELS 3 Zrotation Xrotation Yrotation
    JOINT chest
    {
      OFFSET 0 11.7043 -0.48768
      CHANNELS 3 Zrotation Xrotation Yrotation
      JOINT neck
      {
        OFFSET 0 22.1894 -2.19456
        CHANNELS 3 Zrotation Xrotation Yrotation
        JOINT head
        {
          OFFSET -0.24384 7.07133 1.2192
          CHANNELS 3 Zrotation Xrotation Yrotation
          JOINT leftEye
          {
            OFFSET 4.14528 8.04674 8.04672
            CHANNELS 3 Zrotation Xrotation Yrotation
            End Site
            {
              OFFSET 1 0 0
            }
          }
          JOINT rightEye
          {
            OFFSET -3.6576 8.04674 8.04672
            CHANNELS 3 Zrotation Xrotation Yrotation
            End Site
            {
              OFFSET 1 0 0
            }
          }
        }
      }
      JOINT rCollar
      {
        OFFSET -2.68224 19.2634 -4.8768
        CHANNELS 3 Zrotation Xrotation Yrotation
        JOINT rShldr
        {
          OFFSET -8.77824 -1.95073 1.46304
          CHANNELS 3 Zrotation Xrotation Yrotation
          JOINT rForeArm
          {
            OFFSET -28.1742 -1.7115 0.48768
            CHANNELS 3 Zrotation Xrotation Yrotation
            JOINT rHand
            {
              OFFSET -22.5879 0.773209 7.07136
              CHANNELS 3 Zrotation Xrotation Yrotation
              JOINT rThumb1
              {
                OFFSET -1.2192 -0.487915 3.41376
                CHANNELS 3 Zrotation Xrotation Yrotation
                JOINT rThumb2
                {
                  OFFSET -3.37035 -0.52449 3.41376
                  CHANNELS 3 Zrotation Xrotation Yrotation
                  End Site
                  {
                    OFFSET -1.78271 -1.18214 1.43049
                  }
                }
              }
              JOINT rIndex1
              {
                OFFSET -7.75947 0.938293 5.60832
                CHANNELS 3 Zrotation Xrotation Yrotation
                JOINT rIndex2
                {
                  OFFSET -2.54057 -0.884171 1.56538
                  CHANNELS 3 Zrotation Xrotation Yrotation
                  End Site
                  {
                    OFFSET -1.62519 -0.234802 1.16502
                  }
                }
              }
              JOINT rMid1
              {
                OFFSET -8.24714 1.18213 3.41376
                CHANNELS 3 Zrotation Xrotation Yrotation
                JOINT rMid2
                {
                  OFFSET -3.10165 -0.590103 1.0647
                  CHANNELS 3 Zrotation Xrotation Yrotation
                  End Site
                  {
                    OFFSET -2.48547 -0.328903 0.83742
                  }
                }
              }
              JOINT rRing1
              {
                OFFSET -8.82822 0.546677 1.51678
                CHANNELS 3 Zrotation Xrotation Yrotation
                JOINT rRing2
                {
                  OFFSET -2.60934 -0.819778 -0.0198488
                  CHANNELS 3 Zrotation Xrotation Yrotation
                  End Site
                  {
                    OFFSET -2.33842 -0.294052 0.168128
                  }
                }
              }
              JOINT rPinky1
              {
                OFFSET -8.27202 -0.0477905 -0.4584
                CHANNELS 3 Zrotation Xrotation Yrotation
                JOINT rPinky2
                {
                  OFFSET -1.82734 -0.647385 -0.700984
                  CHANNELS 3 Zrotation Xrotation Yrotation
                  End Site
                  {
                    OFFSET -1.69225 -0.51767 -0.607171
                  }
                }
              }
            }
          }
        }
      }
      JOINT lCollar
      {
        OFFSET 2.68224 19.2634 -4.8768
        CHANNELS 3 Zrotation Xrotation Yrotation
        JOINT lShldr
        {
          OFFSET 8.77824 -1.95073 1.46304
          CHANNELS 3 Zrotation Xrotation Yrotation
          JOINT lForeArm
          {
            OFFSET 28.1742 -1.7115 0.48768
            CHANNELS 3 Zrotation Xrotation Yrotation
            JOINT lHand
            {
              OFFSET 22.5879 0.773209 7.07136
              CHANNELS 3 Zrotation Xrotation Yrotation
              JOINT lThumb1
              {
                OFFSET 1.2192 -0.487915 3.41376
                CHANNELS 3 Zrotation Xrotation Yrotation
                JOINT lThumb2
                {
                  OFFSET 3.37035 -0.52449 3.41376
                  CHANNELS 3 Zrotation Xrotation Yrotation
                  End Site
                  {
                    OFFSET 1.78271 -1.18214 1.43049
                  }
                }
              }
              JOINT lIndex1
              {
                OFFSET 7.75947 0.938293 5.60832
                CHANNELS 3 Zrotation Xrotation Yrotation
                JOINT lIndex2
                {
                  OFFSET 2.54057 -0.884171 1.56538
                  CHANNELS 3 Zrotation Xrotation Yrotation
                  End Site
                  {
                    OFFSET 1.62519 -0.234802 1.16502
                  }
                }
              }
              JOINT lMid1
              {
                OFFSET 8.24714 1.18213 3.41376
                CHANNELS 3 Zrotation Xrotation Yrotation
                JOINT lMid2
                {
                  OFFSET 3.10165 -0.590103 1.0647
                  CHANNELS 3 Zrotation Xrotation Yrotation
                  End Site
                  {
                    OFFSET 2.48547 -0.328903 0.83742
                  }
                }
              }
              JOINT lRing1
              {
                OFFSET 8.82822 0.546677 1.51678
                CHANNELS 3 Zrotation Xrotation Yrotation
                JOINT lRing2
                {
                  OFFSET 2.60934 -0.819778 -0.0198488
                  CHANNELS 3 Zrotation Xrotation Yrotation
                  End Site
                  {
                    OFFSET 2.33842 -0.294052 0.168128
                  }
                }
              }
              JOINT lPinky1
              {
                OFFSET 8.27202 -0.0477905 -0.4584
                CHANNELS 3 Zrotation Xrotation Yrotation
                JOINT lPinky2
                {
                  OFFSET 1.82734 -0.647385 -0.700984
                  CHANNELS 3 Zrotation Xrotation Yrotation
                  End Site
                  {
                    OFFSET 1.69225 -0.51767 -0.607171
                  }
                }
              }
            }
          }
        }
      }
    }
  }
  JOINT rButtock
  {
    OFFSET -8.77824 4.35084 1.2192
    CHANNELS 3 Zrotation Xrotation Yrotation
    JOINT rThigh
    {
      OFFSET 0 -1.70687 -2.19456
      CHANNELS 3 Zrotation Xrotation Yrotation
      JOINT rShin
      {
        OFFSET 0 -36.8199 0.73152
        CHANNELS 3 Zrotation Xrotation Yrotation
        JOINT rFoot
        {
          OFFSET 0.73152 -45.1104 -5.12064
          CHANNELS 3 Zrotation Xrotation Yrotation
          End Site
          {
            OFFSET -1.1221 -3.69964 12.103
          }
        }
      }
    }
  }
  JOINT lButtock
  {
    OFFSET 8.77824 4.35084 1.2192
    CHANNELS 3 Zrotation Xrotation Yrotation
    JOINT lThigh
    {
      OFFSET 0 -1.70687 -2.19456
      CHANNELS 3 Zrotation Xrotation Yrotation
      JOINT lShin
      {
        OFFSET 0 -36.8199 0.73152
        CHANNELS 3 Zrotation Xrotation Yrotation
        JOINT lFoot
        {
          OFFSET -0.73152 -45.1104 -5.12064
          CHANNELS 3 Zrotation Xrotation Yrotation
          End Site
          {
            OFFSET 1.1221 -3.69964 12.103
          }
        }
      }
    }
  }
}
MOTION
Frames:	4
Frame Time:	0.00833333
8.74226 83.1804 34.9374 -10.1377 4.6597 4.6958 -12.2399 15.1315 -2.47536 1.10468 -4.64013 -1.14407 6.32029 -2.31626 1.44938 5.14545 -3.00093 1.00635 -0.0 0.0 0.0 -0.0 0.0 0.0 -1.0742e-13 -1.51067e-13 6.2965e-14 -6.65178 -32.5061 -18.3519 -15.1741 -7.94186 27.9476 -0.115593 -9.65004 -1.36933 8.8507e-10 -4.76539e-10 -5.36098e-10 1.53533e-09 -8.25984e-10 -9.2513e-10 8.85069e-10 -4.76537e-10 -5.36105e-10 7.73091 5.47488 0.417314 8.85072e-10 -4.76538e-10 -5.36098e-10 2.90554 0.965183 0.102902 8.85079e-10 -4.76533e-10 -5.361e-10 10.2786 0.731801 0.0259123 8.85067e-10 -4.76529e-10 -5.36095e-10 2.22167 -0.733487 -0.20892 -1.07473e-13 -1.51085e-13 6.26172e-14 -45.4739 -30.1561 3.33165 16.0421 -8.72644 -29.7616 0.0928431 -8.65864 1.22634 -8.88584e-10 -3.06993e-10 4.56314e-11 -1.53565e-09 -5.30892e-10 7.53712e-11 -8.88586e-10 -3.06994e-10 4.56346e-11 -7.73091 5.47488 -0.417314 -8.88585e-10 -3.06997e-10 4.56251e-11 -2.90554 0.965183 -0.102902 -8.8859e-10 -3.06997e-10 4.56274e-11 -10.2786 0.731801 -0.0259123 -8.88578e-10 -3.06995e-10 4.56187e-11 -2.22167 -0.733487 0.20892 -2.03217e-16 0.0 -3.88251e-19 -7.11977 -19.2219 -13.1223 -0.316221 38.8201 0.698108 -2.65468 -2.46148 -17.1653 2.03217e-16 0.0 3.88251e-19 10.7216 -17.9075 -2.31327 0.135499 31.5516 -0.613217 3.51615 -9.32876 15.1132
8.91994 83.1518 35.2131 -9.7871 4.4889 4.6406 -12.145 15.2032 -2.41722 1.21289 -4.64787 -1.11974 6.23949 -2.36129 1.43034 4.92399 -2.99619 0.98256 -0.0 0.0 0.0 -0.0 0.0 0.0 -7.85946e-14 -1.61605e-13 3.43078e-14 -6.29285 -32.4973 -18.1676 -15.1487 -7.9197 27.8951 -0.113215 -9.54536 -1.35421 5.93303e-10 -4.68976e-10 -5.17238e-10 1.0308e-09 -8.13004e-10 -8.94089e-10 5.93303e-10 -4.68974e-10 -5.17246e-10 7.73091 5.47488 0.417314 5.93304e-10 -4.68975e-10 -5.1724e-10 2.90554 0.965183 0.102902 5.93311e-10 -4.6897e-10 -5.17241e-10 10.2786 0.731801 0.0259123 5.933e-10 -4.68967e-10 -5.17237e-10 2.22167 -0.733487 -0.20892 -7.8641e-14 -1.61618e-13 3.39603e-14 -44.9708 -30.1734 3.31981 16.0549 -8.73841 -29.7887 0.0946407 -8.74242 1.23838 -1.41313e-09 -3.55145e-10 -2.1555e-10 -2.44112e-09 -6.12733e-10 -3.79629e-10 -1.41313e-09 -3.55146e-10 -2.15546e-10 -7.73091 5.47488 -0.417314 -1.41313e-09 -3.5515e-10 -2.15554e-10 -2.90554 0.965183 -0.102902 -1.41313e-09 -3.5515e-10 -2.15553e-10 -10.2786 0.731801 -0.0259123 -1.41312e-09 -3.55149e-10 -2.15562e-10 -2.22167 -0.733487 0.20892 -2.03217e-16 0.0 -3.88251e-19 -7.56056 -19.9064 -13.1332 -0.313257 38.7052 0.698653 -2.67809 -2.51618 -17.1678 2.03217e-16 0.0 3.88251e-19 10.3704 -17.4368 -2.08669 0.131018 31.2868 -0.618003 3.52525 -9.46986 15.0125
9.09311 83.126 35.4931 -9.4515 4.3093 4.5746 -12.0353 15.2839 -2.35237 1.32048 -4.6526 -1.09331 6.14482 -2.40441 1.41164 4.7109 -2.99426 0.964677 -0.0 0.0 0.0 -0.0 0.0 0.0 8.00998e-15 -1.58031e-13 -1.72104e-14 -5.92681 -32.4924 -17.9851 -15.1175 -7.89243 27.8307 -0.109227 -9.36329 -1.32795 3.63788e-10 -4.03219e-10 -6.49861e-10 6.34048e-10 -6.99461e-10 -1.12448e-09 3.6379e-10 -4.03221e-10 -6.49873e-10 7.73091 5.47488 0.417314 3.6379e-10 -4.0322e-10 -6.49865e-10 2.90554 0.965183 0.102902 3.63795e-10 -4.03217e-10 -6.49866e-10 10.2786 0.731801 0.0259123 3.63785e-10 -4.03213e-10 -6.49863e-10 2.22167 -0.733487 -0.20892 7.97099e-15 -1.58036e-13 -1.75303e-14 -44.4702 -30.1419 3.31282 16.0692 -8.75174 -29.8189 0.0974503 -8.86981 1.25672 -1.88378e-09 -2.80245e-10 -6.49252e-10 -3.25197e-09 -4.81039e-10 -1.1336e-09 -1.88379e-09 -2.80248e-10 -6.49246e-10 -7.73091 5.47488 -0.417314 -1.88379e-09 -2.80252e-10 -6.49252e-10 -2.90554 0.965183 -0.102902 -1.88379e-09 -2.80253e-10 -6.49253e-10 -10.2786 0.731801 -0.0259123 -1.88378e-09 -2.80252e-10 -6.49262e-10 -2.22167 -0.733487 0.20892 -2.03217e-16 0.0 -3.88251e-19 -7.98805 -20.5942 -13.1552 -0.310335 38.5853 0.698334 -2.68617 -2.52997 -17.1497 2.03217e-16 0.0 3.88251e-19 10.0271 -16.9478 -1.84691 0.1265 31.0106 -0.622226 3.53395 -9.60583 14.9171
9.26176 83.1027 35.7778 -9.1317 4.1242 4.4981 -11.905 15.3734 -2.28752 1.42118 -4.65997 -1.06653 6.05277 -2.44321 1.39531 4.49676 -3.00283 0.951556 -0.0 0.0 0.0 -0.0 0.0 0.0 9.88563e-14 -1.43028e-13 -7.05845e-14 -5.56707 -32.4947 -17.8134 -15.083 -7.86238 27.7596 -0.10291 -9.08732 -1.28814 1.63563e-10 -3.2166e-10 -7.86499e-10 2.8788e-10 -5.58534e-10 -1.36145e-09 1.63568e-10 -3.21664e-10 -7.86514e-10 7.73091 5.47488 0.417314 1.63567e-10 -3.21663e-10 -7.86504e-10 2.90554 0.965183 0.102902 1.6357e-10 -3.21661e-10 -7.86506e-10 10.2786 0.731801 0.0259123 1.6356e-10 -3.21658e-10 -7.86502e-10 2.22167 -0.733487 -0.20892 9.88257e-14 -1.43023e-13 -7.0866e-14 -43.9996 -30.071 3.30833 16.0842 -8.76576 -29.8507 0.100827 -9.01967 1.27831 -2.22961e-09 -1.7743e-10 -1.05291e-09 -3.84719e-09 -3.01275e-10 -1.83502e-09 -2.22961e-09 -1.77435e-10 -1.0529e-09 -7.73091 5.47488 -0.417314 -2.22961e-09 -1.77438e-10 -1.0529e-09 -2.90554 0.965183 -0.102902 -2.22961e-09 -1.7744e-10 -1.05291e-09 -10.2786 0.731801 -0.0259123 -2.2296e-09 -1.77439e-10 -1.05291e-09 -2.22167 -0.733487 0.20892 -2.03217e-16 0.0 -3.88251e-19 -8.39437 -21.2787 -13.1811 -0.3072 38.4478 0.697025 -2.68437 -2.52014 -17.1146 2.03217e-16 0.0 3.88251e-19 9.69196 -16.4508 -1.60932 0.122058 30.7289 -0.625949 3.54247 -9.73313 14.831
